<svg version="1.0" xmlns="http://www.w3.org/2000/svg" width="533.333" height="533.333" viewBox="0 0 400 400"><path d="M0 200v200h400V0H0v200zm148.7-99.4c14 2.9 26 9 29 14.8 2.4 4.6 2.4 21.2 0 24.9-2.3 3.5-3.5 3.4-9.4-.7-15.7-10.8-31.1-14.1-45.1-9.8-20 6.3-30.4 25.6-30.5 56.7-.1 33.1 11.3 52.1 34.1 56.5 12.9 2.6 26.1-.2 40.2-8.5 4.2-2.5 8.4-4.5 9.4-4.5 2.5 0 3.6 4.2 3.6 13.8 0 6.3-.5 9.7-1.8 12.2-5 10.1-29.2 17.8-52.2 16.7-14.3-.8-22.2-2.6-32.6-7.7C72 254.4 59.8 234.4 56 204c-4.6-37.6 7.2-73.1 30-90.2 9-6.8 23.1-12.5 34.5-14.1 7.3-1 21.2-.6 28.2.9zm72.1 1.5c3.9 1.3 2.3-3.1 26.3 73.1 10.7 33.9 19.5 61.5 19.6 61.4.3-.3 41.3-131.5 41.3-132.2 0-3.3 26.4-4.9 30.8-1.8 1.4.9 2.2 2.5 2.1 4.2 0 1.5-12.1 38.2-26.8 81.7l-26.7 79-3.5 1.8c-2.9 1.5-5.6 1.7-19.9 1.5-13.4-.2-17.1-.6-19.1-2-2.2-1.4-6.1-12.2-28.9-79.9-14.5-43-26.3-79.8-26.4-81.8-.1-2.8.4-3.8 2.4-4.8 3.1-1.6 24.4-1.8 28.8-.2z"/></svg>